<?xml version="1.0" encoding="utf-8"?>
<!-- Generator: Adobe Illustrator 16.0.0, SVG Export Plug-In . SVG Version: 6.00 Build 0)  -->
<!DOCTYPE svg PUBLIC "-//W3C//DTD SVG 1.1//EN" "http://www.w3.org/Graphics/SVG/1.1/DTD/svg11.dtd">
<svg version="1.1" id="Layer_1" xmlns="http://www.w3.org/2000/svg" xmlns:xlink="http://www.w3.org/1999/xlink" x="0px" y="0px"
	 width="800px" height="800px" viewBox="-271.5 538.5 800 800" enable-background="new -271.5 538.5 800 800" xml:space="preserve">
<g>
	<path fill="#FF5A60" d="M428.037,1170.853c-5.259,39.044-31.532,72.831-68.317,87.845c-18.022,7.502-37.539,9.759-57.062,7.502
		c-18.763-2.25-37.535-8.257-57.052-19.507c-27.029-15.029-54.058-38.295-85.588-72.833
		c49.553-60.809,79.575-116.371,90.841-165.904c5.255-23.281,6.005-44.303,3.756-63.825c-3.001-18.767-9.759-36.038-20.274-51.054
		c-23.271-33.779-62.31-53.301-105.852-53.301c-43.544,0-82.581,20.271-105.854,53.301C12.121,908.092,5.369,925.363,2.36,944.13
		c-2.998,19.522-2.249,41.294,3.759,63.825c11.257,49.533,42.038,105.847,90.838,166.646
		c-30.778,34.547-58.556,57.817-85.588,72.834c-19.514,11.263-38.287,17.271-57.051,19.515c-20.271,2.256-39.794-0.75-57.06-7.502
		c-36.788-15.014-63.059-48.809-68.317-87.845c-2.25-18.765-0.75-37.529,6.757-58.552c2.25-7.517,6.007-15.008,9.758-24.025
		c5.257-12.004,11.264-24.777,17.266-37.542l0.755-1.491C-84.727,938.122-29.167,824.01,28.642,712.904l2.249-4.514
		c6.008-11.25,12.007-23.257,18.023-34.521c6-12.015,12.757-23.28,21.014-33.047c15.766-18.023,36.79-27.778,60.061-27.778
		c23.273,0,44.295,9.755,60.061,27.778c8.257,9.767,15.014,21.032,21.021,33.047c6.008,11.264,12.008,23.271,18.015,34.521
		l2.258,4.514c57.051,111.854,112.611,225.968,164.412,337.838v0.741c6.008,12.013,11.258,25.538,17.266,37.542
		c3.756,9.018,7.509,16.509,9.758,24.025C428.786,1132.563,431.035,1151.347,428.037,1170.853L428.037,1170.853z M128.489,1135.564
		c-40.538-51.044-66.817-99.098-75.824-139.625c-3.751-17.273-4.508-32.287-2.249-45.802c1.499-12.016,6.005-22.531,12.004-31.546
		c14.265-20.25,38.29-33.039,66.068-33.039c27.78,0,52.551,12.026,66.068,33.039c5.998,9.015,10.506,19.53,12.006,31.546
		c2.248,13.515,1.499,29.278-2.249,45.802C195.308,1035.726,169.027,1083.771,128.489,1135.564L128.489,1135.564z M467.073,1096.527
		c-3.75-9.006-7.509-18.764-11.258-27.023c-6.008-13.507-12.016-26.279-17.272-38.294l-0.751-0.742
		C386,917.851,330.439,803.737,271.881,691.142l-2.252-4.517c-6.005-11.263-12.013-23.278-18.015-35.286
		c-7.513-13.522-15.021-27.772-27.029-41.293c-24.03-30.032-58.559-46.546-95.346-46.546c-37.538,0-71.316,16.514-96.097,45.053
		c-11.257,13.509-19.517,27.772-27.023,41.292c-6.008,12.011-12.016,24.025-18.023,35.289l-2.249,4.492
		c-57.801,112.611-114.111,226.73-165.914,339.342l-0.75,1.5c-5.258,12.007-11.264,24.767-17.272,38.287
		c-3.751,8.267-7.508,17.272-11.258,27.029c-9.765,27.772-12.765,54.053-9.015,81.076c8.266,56.307,45.803,103.611,97.604,124.624
		c19.514,8.268,39.786,12.016,60.811,12.016c6.005,0,13.514-0.749,19.521-1.507c24.772-3.007,50.294-11.251,75.067-25.522
		c30.788-17.266,60.066-42.037,93.097-78.073c33.028,36.036,63.059,60.808,93.087,78.073c24.78,14.271,50.305,22.516,75.074,25.522
		c6.008,0.758,13.515,1.507,19.522,1.507c21.024,0,42.038-3.748,60.811-12.016c52.553-21.013,89.339-69.066,97.598-124.624
		C479.839,1150.581,476.832,1124.314,467.073,1096.527L467.073,1096.527z"/>
</g>
</svg>
